<?xml version="1.0"?><svg width="2000" height="2000" xmlns="http://www.w3.org/2000/svg">
 <title>Electrical Plug</title>
 <defs>
  <pattern id="gridpattern" patternUnits="userSpaceOnUse" x="0" y="0" width="100" height="100">
   <image id="svg_1" x="0" y="0" width="100" height="100"/>
  </pattern>
 </defs>
 <metadata id="metadata7">image/svg+xmlSergio Luiz Araujo Silvaoutletelectricityenergypowerhomeoffice</metadata>
 <g>
  <title>Layer 1</title>
  <path stroke="#000" fill="#000" stroke-width="2" id="path2821" d="m1624.115845,176.375397c-32.015259,-40.365448 -90.35022,-47.095306 -130.715454,-15.07988l-296.658691,235.28923l-145.050293,-182.883942c-10.11377,-12.80603 -30.995361,-15.211533 -43.762207,-5.048401l-282.637756,224.170532c-240.05661,190.395569 -307.147522,516.860474 -178.522705,781.201599l-467.521179,370.807007c-60.539959,48.015015 -70.613918,135.342285 -22.598339,195.881836c48.015148,60.538818 135.343166,70.613281 195.881344,22.598145l467.52095,-370.807739c228.109375,185.435547 561.274292,194.442627 801.331299,4.04541l282.637329,-224.169922c12.805908,-10.114258 15.211304,-30.99646 5.048462,-43.763062l-145.051025,-182.883728l296.657837,-235.289124c40.366211,-32.015564 47.096069,-90.349182 15.0802,-130.71582c-32.015259,-40.365356 -90.349609,-47.094238 -130.71521,-15.079224l-296.657837,235.288757l-236.003784,-297.557739l296.656982,-235.289307c40.366211,-32.014648 47.095947,-90.34993 15.080688,-130.715164l-0.00061,0.000534z"/>
 </g>
</svg>